# xmcd CD database file
# Copyright (C) 1993-1998 Ti Kan
# 
# Track frame offsets:
#     150
#     16135
#     41892
#     57705
#     82295
# 
# Disc length: 1312 seconds
# 
# Revision: 1
# Processed by: cddbd v1.4b41PL1 Copyright (c) Steve Scherf et al.
# Submitted via: DiscPlay 4.0.4
# 
DISCID=43051e05
DTITLE=Alexander O'Neal featuring Cherrelle - Never Knew Love Like This
DYEAR=1900
DGENRE=
TTITLE0=Never Knew Love Like This (7  Version) Never Knew Love Like This (Ex
TTITLE0=tended Version) Never Knew Love Like This (A Cappella) Never Knew Lo
TTITLE0=ve Like This (Instrumental) Never Knew Love Like This (Reprise)
TTITLE1=
TTITLE2=
TTITLE3=
TTITLE4=
EXTD=
EXTT0=
EXTT1=
EXTT2=
EXTT3=
EXTT4=
PLAYORDER=
